<svg xmlns="http://www.w3.org/2000/svg" viewBox="0 0 24 24" fill="none" role="img" aria-label="arc-guard pipeline brand mark">
  <rect width="24" height="24" rx="6" fill="#18181b"/>

  <g fill="none" stroke="#fafafa" stroke-opacity="0.55" stroke-width="0.55" stroke-linecap="round" stroke-linejoin="round">
    <path d="M 8 12 L 8 6 L 6 3" stroke-dasharray="2 3">
      <animate attributeName="stroke-dashoffset" from="0" to="-10" dur="2.4s" begin="0s" repeatCount="indefinite"/>
    </path>
    <path d="M 12 12 L 12 3" stroke-dasharray="2 3">
      <animate attributeName="stroke-dashoffset" from="0" to="-10" dur="2.4s" begin="0.4s" repeatCount="indefinite"/>
    </path>
    <path d="M 16 12 L 16 6 L 18 3" stroke-dasharray="2 3">
      <animate attributeName="stroke-dashoffset" from="0" to="-10" dur="2.4s" begin="0.8s" repeatCount="indefinite"/>
    </path>
    <path d="M 8 12 L 8 18 L 6 21" stroke-dasharray="2 3">
      <animate attributeName="stroke-dashoffset" from="0" to="-10" dur="2.4s" begin="0.2s" repeatCount="indefinite"/>
    </path>
    <path d="M 12 12 L 12 21" stroke-dasharray="2 3">
      <animate attributeName="stroke-dashoffset" from="0" to="-10" dur="2.4s" begin="0.6s" repeatCount="indefinite"/>
    </path>
    <path d="M 16 12 L 16 18 L 18 21" stroke-dasharray="2 3">
      <animate attributeName="stroke-dashoffset" from="0" to="-10" dur="2.4s" begin="1s" repeatCount="indefinite"/>
    </path>
    <path d="M 12 8 L 6 8 L 3 6" stroke-dasharray="2 3">
      <animate attributeName="stroke-dashoffset" from="0" to="-10" dur="2.4s" begin="0.3s" repeatCount="indefinite"/>
    </path>
    <path d="M 12 12 L 3 12" stroke-dasharray="2 3">
      <animate attributeName="stroke-dashoffset" from="0" to="-10" dur="2.4s" begin="0.7s" repeatCount="indefinite"/>
    </path>
    <path d="M 12 16 L 6 16 L 3 18" stroke-dasharray="2 3">
      <animate attributeName="stroke-dashoffset" from="0" to="-10" dur="2.4s" begin="1.1s" repeatCount="indefinite"/>
    </path>
    <path d="M 12 8 L 18 8 L 21 6" stroke-dasharray="2 3">
      <animate attributeName="stroke-dashoffset" from="0" to="-10" dur="2.4s" begin="0.5s" repeatCount="indefinite"/>
    </path>
    <path d="M 12 12 L 21 12" stroke-dasharray="2 3">
      <animate attributeName="stroke-dashoffset" from="0" to="-10" dur="2.4s" begin="0.9s" repeatCount="indefinite"/>
    </path>
    <path d="M 12 16 L 18 16 L 21 18" stroke-dasharray="2 3">
      <animate attributeName="stroke-dashoffset" from="0" to="-10" dur="2.4s" begin="1.3s" repeatCount="indefinite"/>
    </path>
  </g>

  <g fill="#fafafa">
    <circle cx="6" cy="3" r="0.9"/>
    <circle cx="12" cy="3" r="0.9"/>
    <circle cx="18" cy="3" r="0.9"/>
    <circle cx="6" cy="21" r="0.9"/>
    <circle cx="12" cy="21" r="0.9"/>
    <circle cx="18" cy="21" r="0.9"/>
    <circle cx="3" cy="6" r="0.9"/>
    <circle cx="3" cy="12" r="0.9"/>
    <circle cx="3" cy="18" r="0.9"/>
    <circle cx="21" cy="6" r="0.9"/>
    <circle cx="21" cy="12" r="0.9"/>
    <circle cx="21" cy="18" r="0.9"/>
  </g>

  <rect x="8" y="8" width="8" height="8" rx="1.4" fill="#fafafa" opacity="0.95"/>
  <rect x="9.5" y="9.5" width="5" height="5" rx="0.6" fill="none" stroke="#18181b" stroke-width="0.6" opacity="0.85"/>
</svg>